<svg width="262" height="153" viewBox="0 0 262 153" fill="none" xmlns="http://www.w3.org/2000/svg">
<path d="M13.709 0.00242207H9.91594C8.85059 -0.0209958 6.98915 0.107802 5.06919 1.17332C0.831206 3.5151 0.093657 8.32748 0 8.97147C0.0234143 53.442 0.0351214 97.9243 0.0585356 142.395C0.210728 143.402 0.971691 147.441 4.57749 150.111C6.28673 151.376 8.01938 151.867 9.11985 152.09C10.4193 152.09 11.7305 152.09 13.03 152.09L13.709 0.00242207Z" fill="#17A2CF"/>
<path d="M13.7091 0.00262451H86.6211C87.5928 0.260221 90.3322 1.12668 92.4044 3.80803C93.7975 5.6112 94.2775 7.4378 94.4531 8.43306C94.5702 53.8403 94.6873 99.2359 94.8043 144.643C94.5234 145.603 93.9614 147.043 92.7907 148.449C90.379 151.305 87.1245 151.938 86.1177 152.09C61.7551 152.09 37.3926 152.09 13.0301 152.09C12.1169 151.856 9.47111 151.06 7.36383 148.519C5.47898 146.236 5.06923 143.823 4.96387 142.852C4.96387 98.2289 4.96387 53.6178 4.96387 8.99509C5.29167 7.80078 6.21653 5.09601 8.76868 2.78935C10.6301 1.10326 12.5735 0.353893 13.7091 0.00262451Z" fill="#58C2ED"/>
<path d="M91.1749 9.36972C91.2217 55.6786 91.2686 101.987 91.3271 148.308C65.548 148.507 39.7806 148.694 14.0015 148.893C13.2055 148.507 12.0816 147.851 10.9928 146.762C9.49429 145.264 8.76845 143.671 8.41724 142.723C8.41724 98.2757 8.41724 53.8285 8.41724 9.38142C8.6865 8.51496 9.43576 6.50103 11.426 4.8969C12.6786 3.88993 13.9313 3.43329 14.7391 3.21082C20.3234 3.21082 25.9077 3.21082 31.492 3.21082C31.8081 3.98361 32.5339 5.45893 34.0675 6.7352C35.3319 7.80072 36.608 8.28078 37.3807 8.50325C46.0556 8.45642 54.7306 8.40958 63.3939 8.35104C63.9441 8.05831 64.5412 7.67192 65.1617 7.18014C66.8124 5.83362 67.7489 4.27633 68.2524 3.21082C74.1762 3.21082 80.1117 3.21082 86.0355 3.21082C86.7028 3.44499 88.213 4.08899 89.4891 5.63456C90.7183 7.10989 91.0578 8.66718 91.1749 9.36972Z" fill="white"/>
<path d="M176.146 72.4808H175.045L174.963 136.728L176.146 138.156L213.772 140.135H214.884L215.669 137.524L176.146 72.4808Z" fill="#435154"/>
<path d="M211.712 130.229L253.061 131.178L228.98 110.746L211.712 130.229Z" fill="#435154"/>
<path d="M241.495 121.682L254.162 113.919L257.967 110.746V108.849C255.286 106.905 252.218 104.891 248.777 102.936C243.836 100.137 239.153 98.0532 234.997 96.4959C233.042 95.2313 231.087 93.9668 229.132 92.6905L206.01 73.3591C205.273 72.7502 204.032 71.8603 202.311 71.2514C200.59 70.6426 199.15 70.584 198.412 70.5723C195.462 70.4904 188.028 70.3616 178.054 70.3616C177.422 71.0758 176.789 71.7901 176.157 72.5043C176.157 93.8965 176.157 115.277 176.157 136.669C176.391 137.009 176.637 137.36 176.871 137.7C189.386 138.227 201.901 138.753 214.416 139.28L215.68 137.536C215.833 136.845 216.067 135.838 216.36 134.62C217.589 129.539 218.198 126.998 219.087 125.417C221.089 121.857 224.578 120.277 225.491 119.855C233.077 116.389 240.839 121.249 241.495 121.682Z" fill="#1F9BD7"/>
<path d="M257.967 110.746C259.348 113.38 261.046 117.396 261.689 122.548C262.064 125.569 261.994 128.239 261.771 130.393C261.865 131.26 261.947 133.086 260.823 134.585C259.992 135.709 258.833 136.201 256.796 136.775C254.724 137.36 251.809 138.016 248.144 138.308C248.355 136.634 248.519 133.508 247.278 129.913C245.721 125.429 242.829 122.771 241.495 121.67C245.721 119.082 249.947 116.495 254.162 113.907C255.426 112.853 256.702 111.799 257.967 110.746Z" fill="#2C3C44"/>
<path d="M254.876 114.621C255.649 115.055 256.761 115.64 258.119 116.284C259.184 116.787 259.512 116.916 259.699 116.764C260.039 116.483 259.676 115.499 258.435 112.642C257.756 111.073 257.17 109.797 256.772 108.919C254.009 106.718 250.591 104.189 249.959 104.797C249.713 105.032 249.959 105.652 250.193 106.203C250.907 107.842 252.265 110.699 254.876 114.621Z" fill="#D8EBEE"/>
<path d="M235.079 103.931L236.027 103.065C232.152 99.2358 227.95 95.3016 223.395 91.344C220.024 88.4167 216.711 85.6651 213.456 83.1009C212.239 81.7309 210.33 79.8809 207.591 78.2651C204.933 76.6961 202.451 75.8999 200.695 75.4901C196.492 75.3262 192.301 75.1739 188.098 75.01C187.899 75.0334 186.998 75.1622 186.354 75.9584C185.535 76.9771 185.839 78.2066 185.874 78.3354C186.272 83.1126 186.67 87.8898 187.057 92.6788C187.033 92.9949 187.01 94.1658 187.853 95.2079C189.047 96.6832 190.932 96.5662 191.096 96.5544C205.776 99.025 220.422 101.472 235.079 103.931Z" fill="#2C3C44"/>
<path d="M187.794 75.8881C187.583 76.0169 187.209 76.2862 186.928 76.7546C186.518 77.422 186.518 78.0777 186.53 78.3353C186.951 83.4053 187.372 88.4752 187.794 93.5452C187.958 93.8262 188.204 94.1775 188.555 94.517C189.175 95.1142 189.843 95.3952 190.241 95.524C199.349 96.9759 208.457 98.4278 217.565 99.8797C217.951 98.2171 218.349 95.524 217.799 92.2806C217.401 89.9154 216.64 88.042 215.973 86.7306C214.556 85.1148 212.707 83.2882 210.377 81.5084C207.087 78.991 203.903 77.3869 201.398 76.3565C196.879 76.2043 192.336 76.052 187.794 75.8881Z" fill="#DBEAF6"/>
<path d="M173.277 117.08L173.804 40.293L57.2127 40.1876L55.3162 115.816L173.277 117.08Z" fill="#1F9BD7"/>
<path d="M169.894 44.3092L169.156 111.483L59.2263 110.851L60.9121 43.4661L169.894 44.3092Z" fill="#58C2ED"/>
<path d="M57.2126 115.839V118.766L176.145 119.516V117.08H173.277L57.2126 115.839Z" fill="#2E3C45"/>
<path d="M62.0713 118.883V124.691L176.146 125.639V119.516L62.0713 118.883Z" fill="#435154"/>
<path d="M173.792 126.74H130.921V138.625H173.792V126.74Z" fill="#2C3C44"/>
<path d="M132.197 130.229V134.62L170.631 134.936V130.604L132.197 130.229Z" fill="#445155"/>
<path d="M138.366 117.677H140.322L140.111 134.679L138.366 134.667V117.677Z" fill="#435153"/>
<path d="M162.073 134.866L163.712 134.878V118.029H162.073V134.866Z" fill="#435253"/>
<path d="M231.696 150.884C239.222 150.884 245.323 144.782 245.323 137.255C245.323 129.727 239.222 123.625 231.696 123.625C224.17 123.625 218.069 129.727 218.069 137.255C218.069 144.782 224.17 150.884 231.696 150.884Z" fill="#2C3C44"/>
<path d="M95.8695 150.884C103.396 150.884 109.497 144.782 109.497 137.255C109.497 129.727 103.396 123.625 95.8695 123.625C88.3435 123.625 82.2424 129.727 82.2424 137.255C82.2424 144.782 88.3435 150.884 95.8695 150.884Z" fill="#2C3C44"/>
<path d="M231.696 146.528C236.817 146.528 240.968 142.376 240.968 137.255C240.968 132.133 236.817 127.981 231.696 127.981C226.575 127.981 222.424 132.133 222.424 137.255C222.424 142.376 226.575 146.528 231.696 146.528Z" fill="#A1B9BA"/>
<path d="M95.8697 146.528C100.991 146.528 105.142 142.376 105.142 137.255C105.142 132.133 100.991 127.981 95.8697 127.981C90.7489 127.981 86.5977 132.133 86.5977 137.255C86.5977 142.376 90.7489 146.528 95.8697 146.528Z" fill="#A1B9BA"/>
<path d="M207.509 121.975C207.333 120.792 205.823 120.148 204.184 119.387C202.72 118.696 200.707 117.689 198.272 116.261C193.612 114.446 187.981 112.654 181.472 111.343C173.394 109.715 166.182 109.294 160.352 109.352C150.085 104.774 139.806 100.184 129.539 95.6061C127.842 95.1143 126.062 94.6693 124.189 94.2595C118.464 93.0184 113.161 92.5149 108.49 92.4095C105.329 92.4095 102.156 92.4095 98.9953 92.4095C94.5349 92.3861 89.6413 92.5617 84.3848 93.0535C78.4961 93.6038 73.1226 94.4703 68.3109 95.4655C61.0642 97.0814 55.398 98.9782 51.4878 100.442C45.681 102.62 43.8782 103.802 38.8207 104.961C35.9173 105.629 31.3281 106.425 27.1135 107.011C25.5682 107.221 24.2687 107.385 23.3556 107.491C23.0395 107.444 22.4775 107.409 22.0912 107.76C21.7751 108.041 21.7166 108.451 21.6932 108.626C21.4824 110.254 21.3654 114.738 21.2834 116.073C21.1546 118.169 20.6278 119.762 20.2298 120.979C19.6678 122.712 18.9888 124.106 18.4386 125.101C18.3449 126.389 18.263 127.665 18.1693 128.953L17.303 130.147V132.478L21.6814 133.543C22.8053 134.995 23.6951 136.178 24.2921 136.997C25.0999 138.086 25.5565 138.753 26.3994 139.585C27.1721 140.346 27.8862 140.896 28.3896 141.247C32.3935 141.891 36.3973 142.535 40.4128 143.179C39.8041 135.475 42.8128 128.391 48.4556 124.914C51.6283 122.958 54.8711 122.607 56.9433 122.595C58.8281 122.478 62.4105 122.583 65.7354 124.785C69.786 127.454 71.2845 131.81 72.1392 134.269C72.6426 135.733 72.9235 136.997 73.0757 137.875C73.2982 138.297 73.5206 138.718 73.743 139.14C102.027 139.936 130.324 140.732 158.608 141.528C157.952 134.831 160.575 128.496 165.621 125.042C169.472 122.408 173.546 122.279 175.349 122.338C176.813 122.455 182.467 123.075 186.834 127.782C193.062 134.491 191.06 143.437 190.885 144.186C195.778 143.636 199.735 143.179 202.837 142.922C204.032 142.828 206.197 142.664 208.024 141.13C208.738 140.533 209.206 139.889 209.475 139.456C209.054 139.304 208.633 139.152 208.211 138.988L208.141 130.557L206.818 126.377C206.841 125.85 206.912 125.066 207.087 124.117C207.368 122.736 207.591 122.478 207.509 121.975Z" fill="#FBBD38"/>
<path d="M106.664 89.1661C106.863 89.2598 107.249 89.4706 107.565 89.8921C107.846 90.2785 107.928 90.6532 107.963 90.8522C108.092 91.5548 107.916 92.1285 107.799 92.4212C106.207 92.4212 104.615 92.4212 103.023 92.4212C103.034 92.1988 103.163 90.7937 104.381 89.8687C105.329 89.131 106.371 89.1427 106.664 89.1661Z" fill="#FBBD38"/>
<path d="M33.3418 115.289C33.9623 115.101 34.8988 114.727 35.7769 113.942C36.1047 113.65 36.3739 113.345 36.573 113.076C35.4374 112.549 34.2081 112.045 32.8735 111.565C30.2043 110.617 27.7107 110.008 25.5097 109.622C24.9244 109.528 24.3273 109.446 23.742 109.352C23.6015 109.352 22.6649 109.329 22.021 110.067C21.6464 110.488 21.5527 110.957 21.5176 111.167C21.4474 112.807 21.3771 114.446 21.2952 116.073L33.3418 115.289Z" fill="#E8434D"/>
<path d="M54.1104 104.107L59.4839 107.631L74.8905 108.427L98.2696 109.493L117.598 110.289L156.442 111.811C153.832 109.868 150.893 107.877 147.615 105.945C141.118 102.128 134.936 99.5286 129.61 97.7254C126.39 96.7887 122.667 95.9105 118.523 95.2665C113.969 94.564 109.825 94.3064 106.207 94.2713C102.039 94.0722 97.497 94.0839 92.6268 94.4001C90.2268 94.564 87.9205 94.7865 85.7196 95.0675C82.0201 95.4188 77.9109 96.0042 73.4974 96.976C70.0789 97.7254 66.9297 98.6036 64.0731 99.5169C61.041 100.536 58.0088 101.554 54.9767 102.573L54.1104 104.107Z" fill="#211D1B"/>
<path d="M55.8313 102.971C62.5161 100.617 70.7813 98.2874 80.4045 96.7886C89.1849 95.4304 97.0755 95.0791 103.713 95.1962C109.309 95.044 117.106 95.4421 126.027 97.8542C136.072 100.571 143.705 104.798 148.669 108.088C149.067 108.978 149.465 109.879 149.863 110.769C140.813 110.43 131.752 110.09 122.702 109.75L95.5419 108.685L66.7306 107.491L60.8185 107.022C60.0576 106.847 58.36 106.331 56.9903 104.786C56.4167 104.154 56.0654 103.498 55.8313 102.971Z" fill="#DBEAF6"/>
<path d="M100.236 95.1846L101.922 108.943L110.773 109.282L106.699 95.1846H100.236Z" fill="#211D1B"/>
<path d="M174.799 152.933C183.14 152.933 189.901 146.171 189.901 137.829C189.901 129.487 183.14 122.724 174.799 122.724C166.458 122.724 159.697 129.487 159.697 137.829C159.697 146.171 166.458 152.933 174.799 152.933Z" fill="#211D1B"/>
<path d="M158.632 141.505V145.357C143.284 144.76 127.514 144.374 111.346 144.245C98.3047 144.14 85.5323 144.21 73.0291 144.432C73.2749 142.664 73.5208 140.885 73.7549 139.116L158.632 141.505Z" fill="#2A2929"/>
<path d="M205.846 121.506L205.121 124.094L200.941 123.368L199.817 123.497C198.307 123.626 195.872 123.637 193.039 122.794C190.077 121.916 190.779 121.319 186.998 119.703C186.694 119.574 186.05 119.305 186.038 118.907C186.003 118.286 187.513 117.724 188.391 117.443C191.892 117.373 196.574 117.759 201.667 119.633C203.201 120.218 204.605 120.851 205.846 121.506Z" fill="#D8EBEE"/>
<path d="M174.799 150.345C181.711 150.345 187.314 144.741 187.314 137.828C187.314 130.916 181.711 125.312 174.799 125.312C167.887 125.312 162.284 130.916 162.284 137.828C162.284 144.741 167.887 150.345 174.799 150.345Z" fill="#62666C"/>
<path d="M59.4839 107.631L54.1104 113.872C58.2078 115.734 64.436 119.176 70.4418 125.3C75.5929 130.546 78.707 135.861 80.5333 139.643" stroke="#62666C" stroke-width="3" stroke-miterlimit="10"/>
<path d="M105.504 109.786L110.773 140.147" stroke="#62666C" stroke-width="3" stroke-miterlimit="10"/>
<path d="M149.863 110.769L151.736 141.306" stroke="#62666C" stroke-width="3" stroke-miterlimit="10"/>
<path d="M17.3148 132.466C16.8933 133.602 17.0455 134.164 17.268 134.456C17.5255 134.796 17.9704 134.913 18.0641 135.346C18.1343 135.639 17.9938 135.92 17.8884 136.096C18.1694 136.939 18.7548 138.227 20.0191 139.058C20.8621 139.62 21.6464 139.737 22.3254 139.854C23.7303 140.1 25.7439 140.498 28.4132 141.224C27.3712 140.604 25.9078 139.585 24.4913 137.992C23.0162 136.318 22.1733 134.667 21.705 133.52C20.2416 133.18 18.7782 132.817 17.3148 132.466Z" fill="#62666C"/>
<path d="M91.3622 116.881L93.8207 121.623H88.7983L86.5857 116.881H91.3622Z" fill="#62666C"/>
<path d="M93.973 112.537L96.4315 116.881H91.4092L89.1965 112.537H93.973Z" fill="#62666C"/>
<path d="M98.5976 121.623L101.056 126.202H96.0337L93.821 121.623H98.5976Z" fill="#62666C"/>
<path d="M88.8571 121.623L91.3156 126.202H86.2932L84.0806 121.623H88.8571Z" fill="#62666C"/>
<path d="M96.0336 126.202L98.4921 130.78H93.4697L91.2571 126.202H96.0336Z" fill="#62666C"/>
<path d="M103.046 130.78L105.505 135.37H100.482L98.2695 130.78H103.046Z" fill="#62666C"/>
<path d="M93.3524 130.78L95.8109 135.37H90.7886L88.5759 130.78H93.3524Z" fill="#62666C"/>
<path d="M86.1176 126.002L88.5761 130.581H83.542L81.3293 126.002H86.1176Z" fill="#62666C"/>
<path d="M83.5419 130.581L86.0004 135.171H80.978L78.7654 130.581H83.5419Z" fill="#62666C"/>
<path d="M73.7665 130.3L76.225 134.878H71.1909L68.9783 130.3H73.7665Z" fill="#62666C"/>
<path d="M76.307 125.71L78.7655 130.3H73.7432L71.5305 125.71H76.307Z" fill="#62666C"/>
<path d="M78.871 121.342L81.3295 125.92H76.3071L74.0945 121.342H78.871Z" fill="#62666C"/>
<path d="M69.2711 120.839L71.7296 125.429H66.7073L64.4946 120.839H69.2711Z" fill="#62666C"/>
<path d="M72.1042 116.425L74.5627 121.014H69.5403L67.3276 116.425H72.1042Z" fill="#62666C"/>
<path d="M84.3263 112.28L86.7848 116.659H81.7507L79.5381 112.28H84.3263Z" fill="#62666C"/>
<path d="M74.8437 112.139L77.3022 116.53H72.2798L70.0671 112.139H74.8437Z" fill="#62666C"/>
<path d="M65.15 112.01L67.6085 116.389H62.5862L60.3735 112.01H65.15Z" fill="#62666C"/>
<path d="M62.4574 116.167L64.9042 120.558H59.8818L57.6692 116.167H62.4574Z" fill="#62666C"/>
<path d="M55.5853 111.811L58.0438 116.19H53.0215L50.8088 111.811H55.5853Z" fill="#62666C"/>
<path d="M45.81 111.589L48.2684 115.968H43.2461L41.0334 111.589H45.81Z" fill="#62666C"/>
<path d="M52.5885 116.097L55.047 120.476H50.0247L47.812 116.097H52.5885Z" fill="#62666C"/>
<path d="M59.5893 120.593L62.0478 124.984H57.0254L54.8127 120.593H59.5893Z" fill="#62666C"/>
<path d="M49.9076 120.593L52.3661 124.984H47.3438L45.1311 120.593H49.9076Z" fill="#62666C"/>
<path d="M49.1698 108.334L51.6283 111.811H46.5942L44.3816 108.334H49.1698Z" fill="#62666C"/>
<path d="M86.7379 108.779L89.1964 112.28H84.1624L81.9497 108.779H86.7379Z" fill="#62666C"/>
<path d="M77.5714 108.779L80.0299 112.28H75.0076L72.7949 108.779H77.5714Z" fill="#62666C"/>
<path d="M67.8778 108.509L70.3363 112.01H65.3022L63.0896 108.509H67.8778Z" fill="#62666C"/>
<path d="M58.6644 108.509L61.1229 112.01H56.1006L53.8879 108.509H58.6644Z" fill="#62666C"/>
<path d="M90.7887 135.171L93.2472 139.749H88.2131L86.0005 135.171H90.7887Z" fill="#62666C"/>
<path d="M81.0016 135.171L83.4601 139.374H78.4377L76.2251 135.171H81.0016Z" fill="#62666C"/>
<path d="M100.588 135.534L103.046 140.112H98.0237L95.811 135.534H100.588Z" fill="#62666C"/>
<path d="M81.704 116.659L84.1625 121.237H79.1284L76.9158 116.659H81.704Z" fill="#62666C"/>
<path d="M57.1659 152.933C65.5066 152.933 72.2681 146.171 72.2681 137.829C72.2681 129.487 65.5066 122.724 57.1659 122.724C48.8252 122.724 42.0637 129.487 42.0637 137.829C42.0637 146.171 48.8252 152.933 57.1659 152.933Z" fill="#1D1411"/>
<path d="M57.1658 150.345C64.0776 150.345 69.6807 144.741 69.6807 137.828C69.6807 130.916 64.0776 125.312 57.1658 125.312C50.254 125.312 44.6509 130.916 44.6509 137.828C44.6509 144.741 50.254 150.345 57.1658 150.345Z" fill="#62666C"/>
<path d="M46.969 143.531V146.68L54.602 146.903L101.817 147.254L104.287 147.055V144.175L103.901 143.66H103.456L103.292 143.215L109.93 134.62L110.96 135.135L110.574 136.002V137.056L116.182 136.576L115.924 135.416L115.444 134.62L114.543 126.799L114.929 125.733V124.644L109.321 125.159L109.766 126.799L97.1691 143.25L53.8294 142.887L46.969 143.531Z" fill="#1F9BD7"/>
<path d="M104.931 66.521L110.199 125.089L114.226 124.726L112.693 111.355L108.783 65.9473C108.513 65.8185 107.67 65.4438 106.605 65.6546C105.727 65.8302 105.165 66.2986 104.931 66.521Z" fill="#435154"/>
<path d="M107.916 118.005L108.584 123.942L114.414 123.403L113.782 117.525L107.916 118.005Z" fill="#58C2ED"/>
<path d="M105.622 66.486L108.314 66.3689L107.483 53.9574H104.591L105.622 66.486Z" fill="#2C3C44"/>
<path d="M115.374 150.989C118.619 150.989 121.251 148.358 121.251 145.111C121.251 141.865 118.619 139.234 115.374 139.234C112.128 139.234 109.497 141.865 109.497 145.111C109.497 148.358 112.128 150.989 115.374 150.989Z" fill="#2C3C44"/>
<path d="M115.374 149.537C117.818 149.537 119.799 147.556 119.799 145.111C119.799 142.667 117.818 140.685 115.374 140.685C112.93 140.685 110.948 142.667 110.948 145.111C110.948 147.556 112.93 149.537 115.374 149.537Z" fill="#1F9BD7"/>
<path d="M115.374 148.448C117.216 148.448 118.71 146.954 118.71 145.111C118.71 143.268 117.216 141.774 115.374 141.774C113.531 141.774 112.037 143.268 112.037 145.111C112.037 146.954 113.531 148.448 115.374 148.448Z" fill="#435154"/>
<path d="M48.8069 150.989C52.0527 150.989 54.6839 148.358 54.6839 145.111C54.6839 141.865 52.0527 139.234 48.8069 139.234C45.5611 139.234 42.9299 141.865 42.9299 145.111C42.9299 148.358 45.5611 150.989 48.8069 150.989Z" fill="#2C3C44"/>
<path d="M48.8069 149.537C51.2509 149.537 53.2322 147.556 53.2322 145.111C53.2322 142.667 51.2509 140.685 48.8069 140.685C46.3629 140.685 44.3816 142.667 44.3816 145.111C44.3816 147.556 46.3629 149.537 48.8069 149.537Z" fill="#1F9BD7"/>
<path d="M48.807 148.448C50.6497 148.448 52.1435 146.954 52.1435 145.111C52.1435 143.268 50.6497 141.774 48.807 141.774C46.9643 141.774 45.4705 143.268 45.4705 145.111C45.4705 146.954 46.9643 148.448 48.807 148.448Z" fill="#435154"/>
<path d="M111.276 136.997L111.44 137.828L110.948 138.625L111.44 142.313L113.782 145.58C113.922 145.802 114.215 146.224 114.742 146.563C115.186 146.844 115.608 146.926 115.865 146.961C116.006 146.938 116.451 146.844 116.767 146.446C117.118 145.978 117.142 145.299 116.802 144.725C116.662 142.699 116.521 140.662 116.381 138.636L115.385 137.196V136.658L111.276 136.997Z" fill="#2C3C44"/>
<path d="M94.968 55.8659C95.4012 55.8425 95.8929 55.8074 96.408 55.7137C97.1807 55.5849 97.8363 55.3859 98.3865 55.1868C100.459 55.1049 102.519 55.0112 104.591 54.9292C105.434 54.8824 106.277 54.8355 107.132 54.7887C107.237 54.6833 107.67 54.2384 107.659 53.6295C107.635 52.8802 106.933 52.1776 105.938 52.0488C102.086 52.1191 98.2226 52.1893 94.3709 52.2596C93.6217 52.564 93.1183 53.2666 93.1183 54.0042C93.1066 54.9292 93.9027 55.784 94.968 55.8659Z" fill="#1F9BD7"/>
</svg>
